<?xml version="1.0" encoding="UTF-8" standalone="no"?>
<!-- Created with Inkscape (http://www.inkscape.org/) -->

<svg
   xmlns:dc="http://purl.org/dc/elements/1.1/"
   xmlns:cc="http://creativecommons.org/ns#"
   xmlns:rdf="http://www.w3.org/1999/02/22-rdf-syntax-ns#"
   xmlns:svg="http://www.w3.org/2000/svg"
   xmlns="http://www.w3.org/2000/svg"
   xmlns:sodipodi="http://sodipodi.sourceforge.net/DTD/sodipodi-0.dtd"
   xmlns:inkscape="http://www.inkscape.org/namespaces/inkscape"
   width="49mm"
   height="49mm"
   viewBox="0 0 49 49"
   version="1.1"
   id="svg8416"
   inkscape:version="0.92.4 (5da689c313, 2019-01-14)"
   sodipodi:docname="contact.svg">
  <defs
     id="defs8410" />
  <sodipodi:namedview
     id="base"
     pagecolor="#ffffff"
     bordercolor="#666666"
     borderopacity="1.0"
     inkscape:pageopacity="0.0"
     inkscape:pageshadow="2"
     inkscape:zoom="2.8"
     inkscape:cx="77.386853"
     inkscape:cy="136.5785"
     inkscape:document-units="mm"
     inkscape:current-layer="layer1"
     showgrid="false"
     fit-margin-top="0"
     fit-margin-left="0"
     fit-margin-right="0"
     fit-margin-bottom="0"
     inkscape:window-width="1920"
     inkscape:window-height="1017"
     inkscape:window-x="-8"
     inkscape:window-y="-8"
     inkscape:window-maximized="1" />
  <metadata
     id="metadata8413">
    <rdf:RDF>
      <cc:Work
         rdf:about="">
        <dc:format>image/svg+xml</dc:format>
        <dc:type
           rdf:resource="http://purl.org/dc/dcmitype/StillImage" />
        <dc:title />
      </cc:Work>
    </rdf:RDF>
  </metadata>
  <g
     inkscape:label="Layer 1"
     inkscape:groupmode="layer"
     id="layer1"
     transform="translate(-17.188244,-100.22098)">
    <circle
       cy="124.72098"
       cx="41.688244"
       id="circle2206"
       style="opacity:1;vector-effect:none;fill:#224783;fill-opacity:1;stroke:none;stroke-width:1;stroke-linecap:round;stroke-linejoin:round;stroke-miterlimit:4;stroke-dasharray:none;stroke-dashoffset:0;stroke-opacity:1;paint-order:markers fill stroke"
       r="24.5" />
    <path
       style="color:#000000;font-style:normal;font-variant:normal;font-weight:normal;font-stretch:normal;font-size:medium;line-height:normal;font-family:sans-serif;font-variant-ligatures:normal;font-variant-position:normal;font-variant-caps:normal;font-variant-numeric:normal;font-variant-alternates:normal;font-feature-settings:normal;text-indent:0;text-align:start;text-decoration:none;text-decoration-line:none;text-decoration-style:solid;text-decoration-color:#000000;letter-spacing:normal;word-spacing:normal;text-transform:none;writing-mode:lr-tb;direction:ltr;text-orientation:mixed;dominant-baseline:auto;baseline-shift:baseline;text-anchor:start;white-space:normal;shape-padding:0;clip-rule:nonzero;display:inline;overflow:visible;visibility:visible;opacity:1;isolation:auto;mix-blend-mode:normal;color-interpolation:sRGB;color-interpolation-filters:linearRGB;solid-color:#000000;solid-opacity:1;vector-effect:none;fill:#aaccff;fill-opacity:1;fill-rule:nonzero;stroke:none;stroke-width:1;stroke-linecap:round;stroke-linejoin:round;stroke-miterlimit:4;stroke-dasharray:none;stroke-dashoffset:0;stroke-opacity:1;paint-order:markers fill stroke;color-rendering:auto;image-rendering:auto;shape-rendering:auto;text-rendering:auto;enable-background:accumulate"
       d="m 41.690064,112.21593 c -5.51708,-1.1e-4 -10.00208,4.48283 -10.00197,9.99991 6e-5,1.70724 0.43032,3.31516 1.18701,4.72219 l -0.0734,9.78442 c -0.002,0.38814 0.419549,0.63061 0.75396,0.43356 l 8.42222,-4.9475 h 5.29e-4 c 5.383271,-0.15351 9.709801,-4.57269 9.709991,-9.99267 1.09e-4,-5.51687 -4.481491,-9.99972 -9.99836,-9.99991 z m 0,0.99994 c 4.976429,1.7e-4 8.998509,4.02353 8.998419,8.99997 -5.8e-5,1.76479 -0.507968,3.40843 -1.382858,4.79661 v -0.99581 c 0,-0.29236 -0.0291,-0.57862 -0.0858,-0.85576 -0.0566,-0.2771 -0.140509,-0.54416 -0.248049,-0.7984 -0.107561,-0.25424 -0.237821,-0.49673 -0.390671,-0.72296 -0.153,-0.22647 -0.328038,-0.43707 -0.519869,-0.6289 -0.192191,-0.19218 -0.402921,-0.3646 -0.628901,-0.51728 -0.184608,-0.12472 -0.382278,-0.23188 -0.586529,-0.32711 0.73183,-0.54822 1.20971,-1.41926 1.209749,-2.39934 4e-5,-1.65093 -1.349409,-2.99976 -3.00034,-2.99981 -1.650979,-3e-5 -2.999839,1.34883 -2.999809,2.99981 3e-5,0.98018 0.47782,1.85113 1.20974,2.39934 -0.20403,0.0951 -0.40168,0.20224 -0.58653,0.32711 -0.22599,0.15268 -0.43671,0.32562 -0.6289,0.5178 -0.19217,0.19218 -0.36511,0.40289 -0.5178,0.6289 -0.14106,0.2088 -0.2626,0.4321 -0.36535,0.66508 -0.14775,-0.13293 -0.30165,-0.25906 -0.46664,-0.37052 -0.18473,-0.12482 -0.38265,-0.23132 -0.58704,-0.3266 0.73215,-0.5482 1.21023,-1.41953 1.21026,-2.39985 3e-5,-1.65093 -1.3494,-2.99977 -3.00033,-2.99982 -1.65098,-3e-5 -2.99985,1.34883 -2.99982,2.99982 4e-5,0.98028 0.47769,1.85165 1.20975,2.39985 -0.204241,0.0952 -0.40194,0.20188 -0.58653,0.3266 -0.226,0.15268 -0.43671,0.32558 -0.6289,0.51779 -0.19182,0.19182 -0.366861,0.40244 -0.51987,0.62891 -0.15283,0.22621 -0.28311,0.46814 -0.39067,0.72243 -0.10758,0.25432 -0.19138,0.52196 -0.24805,0.79892 -0.0298,0.14551 -0.0508,0.29381 -0.0651,0.4439 -0.8887,-1.39532 -1.40554,-3.05142 -1.4056,-4.83071 -1e-4,-4.97663 4.0254,-9.00007 9.00203,-8.99997 z m 3.36517,4.55115 c 1.110498,4e-5 2.000419,0.88938 2.000401,1.99987 -4e-5,1.11028 -0.890191,1.99957 -2.000401,1.99988 -1.11048,2e-5 -1.99983,-0.88939 -1.99987,-1.99988 -2e-5,-1.11053 0.88934,-1.9999 1.99987,-1.99987 z m -6.7324,1.44125 c 1.11049,3e-5 2.00041,0.88938 2.00039,1.99988 -4e-5,1.11044 -0.88994,1.99984 -2.00039,1.99988 -1.11049,2e-5 -1.99984,-0.88941 -1.99988,-1.99988 -2e-5,-1.11053 0.88935,-1.9999 1.99988,-1.99988 z m 6.7324,3.55844 c 0.224761,0 0.44455,0.0233 0.656291,0.0667 0.211439,0.0433 0.4157,0.10704 0.609788,0.18914 0.194122,0.0821 0.3772,0.18223 0.550352,0.29921 0.173029,0.11689 0.33551,0.24921 0.482658,0.39635 0.147492,0.14749 0.279781,0.30959 0.396362,0.48214 0.116718,0.17276 0.218498,0.35645 0.300749,0.55087 0.0822,0.19443 0.1465,0.39814 0.18965,0.60927 0.0432,0.2111 0.0641,0.43089 0.0641,0.65629 v 2.24017 c -1.49425,1.63281 -3.538932,2.58953 -5.731951,2.81275 v -3.61114 c 0,-0.29237 -0.0296,-0.57862 -0.0863,-0.85577 -0.0567,-0.27695 -0.14046,-0.5446 -0.24804,-0.79892 -0.0889,-0.21008 -0.19807,-0.40907 -0.31833,-0.60048 0.0395,-0.15394 0.0795,-0.30796 0.14056,-0.45217 0.0822,-0.19437 0.18246,-0.37806 0.29921,-0.55087 0.1169,-0.17304 0.24922,-0.33498 0.39636,-0.48214 0.14715,-0.14714 0.3091,-0.27946 0.48214,-0.39635 0.17279,-0.11675 0.35853,-0.21697 0.55293,-0.29921 0.19445,-0.0822 0.396078,-0.14599 0.6072,-0.18914 a 0.50005001,0.50005001 0 0 0 0.0021,0 c 0.21164,-0.0434 0.429469,-0.0667 0.654219,-0.0667 z m -6.7324,1.44177 h 5.02e-4 c 0.224581,4e-5 0.44432,0.0229 0.655781,0.0662 0.211299,0.0433 0.413379,0.10744 0.60771,0.18965 a 0.50005001,0.50005001 0 0 0 0.002,0 c 0.19413,0.0821 0.37721,0.18171 0.55035,0.29869 0.17337,0.11712 0.33589,0.25166 0.48266,0.39843 0.11641,0.1164 0.22073,0.24353 0.31833,0.3762 a 0.50005001,0.50005001 0 0 0 0.0294,0.0475 c 0.0589,0.0828 0.0747,0.097 0.0501,0.0594 0.11602,0.17208 0.2153,0.35635 0.29714,0.54984 0.0411,0.0972 0.0779,0.19653 0.10956,0.29817 v 5.3e-4 c 0.0316,0.10148 0.0585,0.20509 0.0801,0.31057 v 5.3e-4 c 0.0216,0.10555 0.0384,0.21241 0.0496,0.32143 0.0112,0.10915 0.0171,0.21997 0.0171,0.33228 v 5.3e-4 3.73207 c -2.483374,-0.0367 -4.826774,-1.09955 -6.500374,-2.93319 v -0.79892 c 0,-0.22542 0.0213,-0.4431 0.0646,-0.65422 0.0432,-0.21128 0.10744,-0.41544 0.18965,-0.60978 0.0822,-0.19437 0.184009,-0.37961 0.30076,-0.55242 0.11657,-0.17254 0.24887,-0.3331 0.39636,-0.48059 0.14713,-0.14713 0.30963,-0.28153 0.48266,-0.39843 0.17315,-0.11697 0.3562,-0.21656 0.55035,-0.29869 0.19417,-0.0821 0.3985,-0.14646 0.60978,-0.18965 0.21162,-0.0434 0.43122,-0.0661 0.65578,-0.0662 z"
       id="path1152"
       inkscape:connector-curvature="0" />
  </g>
</svg>
