<?xml version="1.0" encoding="UTF-8" standalone="no"?>
<!-- Created with Inkscape (http://www.inkscape.org/) -->

<svg
   xmlns:dc="http://purl.org/dc/elements/1.1/"
   xmlns:cc="http://creativecommons.org/ns#"
   xmlns:rdf="http://www.w3.org/1999/02/22-rdf-syntax-ns#"
   xmlns:svg="http://www.w3.org/2000/svg"
   xmlns="http://www.w3.org/2000/svg"
   xmlns:sodipodi="http://sodipodi.sourceforge.net/DTD/sodipodi-0.dtd"
   xmlns:inkscape="http://www.inkscape.org/namespaces/inkscape"
   width="49mm"
   height="49mm"
   viewBox="0 0 49 49"
   version="1.1"
   id="svg8416"
   inkscape:version="0.92.4 (5da689c313, 2019-01-14)"
   sodipodi:docname="logo.svg">
  <defs
     id="defs8410" />
  <sodipodi:namedview
     id="base"
     pagecolor="#ffffff"
     bordercolor="#666666"
     borderopacity="1.0"
     inkscape:pageopacity="0.0"
     inkscape:pageshadow="2"
     inkscape:zoom="2.8"
     inkscape:cx="100.40429"
     inkscape:cy="77.09594"
     inkscape:document-units="mm"
     inkscape:current-layer="layer1"
     showgrid="false"
     fit-margin-top="0"
     fit-margin-left="0"
     fit-margin-right="0"
     fit-margin-bottom="0"
     inkscape:window-width="1920"
     inkscape:window-height="1017"
     inkscape:window-x="-8"
     inkscape:window-y="-8"
     inkscape:window-maximized="1" />
  <metadata
     id="metadata8413">
    <rdf:RDF>
      <cc:Work
         rdf:about="">
        <dc:format>image/svg+xml</dc:format>
        <dc:type
           rdf:resource="http://purl.org/dc/dcmitype/StillImage" />
        <dc:title />
      </cc:Work>
    </rdf:RDF>
  </metadata>
  <g
     inkscape:label="Layer 1"
     inkscape:groupmode="layer"
     id="layer1"
     transform="translate(-22.4375,-81.648064)">
    <circle
       r="24.5"
       cy="106.14806"
       cx="46.9375"
       id="circle2210"
       style="opacity:1;vector-effect:none;fill:#224783;fill-opacity:1;stroke:none;stroke-width:1;stroke-linecap:round;stroke-linejoin:round;stroke-miterlimit:4;stroke-dasharray:none;stroke-dashoffset:0;stroke-opacity:1;paint-order:markers fill stroke" />
    <path
       style="color:#000000;font-style:normal;font-variant:normal;font-weight:normal;font-stretch:normal;font-size:medium;line-height:normal;font-family:sans-serif;font-variant-ligatures:normal;font-variant-position:normal;font-variant-caps:normal;font-variant-numeric:normal;font-variant-alternates:normal;font-feature-settings:normal;text-indent:0;text-align:start;text-decoration:none;text-decoration-line:none;text-decoration-style:solid;text-decoration-color:#000000;letter-spacing:normal;word-spacing:normal;text-transform:none;writing-mode:lr-tb;direction:ltr;text-orientation:mixed;dominant-baseline:auto;baseline-shift:baseline;text-anchor:start;white-space:normal;shape-padding:0;clip-rule:nonzero;display:inline;overflow:visible;visibility:visible;opacity:1;isolation:auto;mix-blend-mode:normal;color-interpolation:sRGB;color-interpolation-filters:linearRGB;solid-color:#000000;solid-opacity:1;vector-effect:none;fill:#aaccff;fill-opacity:1;fill-rule:nonzero;stroke:none;stroke-width:1;stroke-linecap:round;stroke-linejoin:round;stroke-miterlimit:4;stroke-dasharray:none;stroke-dashoffset:0;stroke-opacity:1;paint-order:markers fill stroke;color-rendering:auto;image-rendering:auto;shape-rendering:auto;text-rendering:auto;enable-background:accumulate"
       d="m 55.137737,93.239809 a 0.50004996,0.50004996 0 0 0 -0.349332,0.14831 l -9.855214,9.908961 a 0.50004996,0.50004996 0 0 0 -0.170016,0.25631 0.50004996,0.50004996 0 0 0 -0.0015,0.006 0.50004996,0.50004996 0 0 0 -0.0026,0.008 l -0.843875,3.19722 -0.822174,3.12281 -0.01964,0.0744 a 0.50004996,0.50004996 0 0 0 0.611333,0.61133 l 3.181718,-0.8475 3.179654,-0.84594 a 0.50033142,0.50033142 0 0 0 0.0088,-0.003 0.50004996,0.50004996 0 0 0 0.02119,-0.007 0.50033142,0.50033142 0 0 0 0.02326,-0.008 0.50004996,0.50004996 0 0 0 0.02223,-0.009 0.50033142,0.50033142 0 0 0 0.02482,-0.0114 0.50004996,0.50004996 0 0 0 0.03669,-0.0212 0.50004996,0.50004996 0 0 0 0.03566,-0.0243 0.50004996,0.50004996 0 0 0 0.0057,-0.004 0.50033142,0.50033142 0 0 0 0.0026,-0.003 0.50004996,0.50004996 0 0 0 0.02842,-0.0243 0.50004996,0.50004996 0 0 0 0.0067,-0.006 0.50033142,0.50033142 0 0 0 0.0026,-0.003 0.50004996,0.50004996 0 0 0 0.0078,-0.007 l 9.900687,-9.954952 a 0.50004996,0.50004996 0 0 0 0,-0.70693 l -4.675796,-4.699509 a 0.50004996,0.50004996 0 0 0 -0.359669,-0.14831 z m 0.0062,1.208709 3.970301,3.99253 -8.283216,8.328172 0.08216,-0.33435 a 0.50004996,0.50004996 0 0 0 -0.605128,-0.60358 l -1.266074,0.31264 0.31264,-1.27537 a 0.50004996,0.50004996 0 0 0 -0.605646,-0.60565 l -1.265558,0.31678 0.312643,-1.27744 a 0.50004996,0.50004996 0 0 0 -0.605647,-0.60565 l -0.331761,0.0822 z m -21.087593,7.170632 c -0.385122,1.1e-4 -0.625702,0.41668 -0.433049,0.74982 l 4.748546,8.22017 4.750099,8.21862 c 0.192662,0.33269 0.673436,0.33269 0.866098,0 l 4.750096,-8.21862 0.222726,-0.38499 -1.365808,0.3638 -4.040063,6.98976 -4.036446,-6.98614 2.642732,0.002 c -0.09983,-0.28218 -0.112969,-0.58776 -0.03772,-0.87746 l 0.01964,-0.0755 c 3.44e-4,-0.002 6.88e-4,-0.003 0.001,-0.005 l 0.01085,-0.0424 -2.208133,-0.001 1.810742,-3.11144 1.814359,-3.11919 0.155546,0.26665 0.08217,-0.31264 c 0.0022,-0.007 0.0044,-0.0138 0.0067,-0.0207 0.0061,-0.0205 0.01266,-0.0408 0.01964,-0.061 0.0085,-0.0275 0.01783,-0.0548 0.0279,-0.0816 0.0079,-0.0193 0.01613,-0.0384 0.02481,-0.0574 0.0113,-0.0265 0.02336,-0.0528 0.03617,-0.0785 0.01232,-0.0232 0.02524,-0.0461 0.03876,-0.0687 0.01045,-0.0188 0.02131,-0.0374 0.03256,-0.0558 0.01506,-0.0228 0.03074,-0.0452 0.04702,-0.0672 0.01397,-0.0203 0.02845,-0.0404 0.04341,-0.06 0.01376,-0.0168 0.0279,-0.0334 0.04237,-0.0496 0.01835,-0.0216 0.0373,-0.0425 0.05684,-0.063 0.0036,-0.004 0.0072,-0.008 0.01085,-0.0119 v -5.3e-4 l 0.0708,-0.0708 0.923457,-0.92914 h -1.636025 z m 0.866095,0.99993 h 7.912695 l -1.943034,3.33882 -2.026232,3.48402 z m 11.705746,1.24747 -0.312642,1.27744 a 0.50004996,0.50004996 0 0 0 0.605647,0.60358 l 1.265558,-0.3147 -0.312643,1.27744 a 0.50004996,0.50004996 0 0 0 0.607714,0.60358 l 1.263488,-0.31265 -0.242361,0.98806 -2.894398,0.77205 -0.06718,0.0181 0.387572,-1.52394 c 0.07942,-0.31281 -0.153768,-0.61798 -0.476456,-0.62321 -0.04477,-7.7e-4 -0.08944,0.004 -0.132808,0.0155 l -1.434539,0.36845 0.764813,-2.90628 z"
       id="path1164"
       inkscape:connector-curvature="0" />
  </g>
</svg>
